<?xml version="1.0" encoding="UTF-8" standalone="no"?>
<svg
   class="svg-icon"
   style="width: 1em; height: 1em;vertical-align: middle;fill: currentColor;overflow: hidden;"
   viewBox="0 0 1024 1024"
   version="1.1"
   id="svg186"
   sodipodi:docname="ios-battery-full-3.svg"
   inkscape:version="1.2.2 (b0a84865, 2022-12-01)"
   xmlns:inkscape="http://www.inkscape.org/namespaces/inkscape"
   xmlns:sodipodi="http://sodipodi.sourceforge.net/DTD/sodipodi-0.dtd"
   xmlns="http://www.w3.org/2000/svg"
   xmlns:svg="http://www.w3.org/2000/svg">
  <defs
     id="defs190" />
  <sodipodi:namedview
     id="namedview188"
     pagecolor="#ffffff"
     bordercolor="#000000"
     borderopacity="0.25"
     inkscape:showpageshadow="2"
     inkscape:pageopacity="0.0"
     inkscape:pagecheckerboard="0"
     inkscape:deskcolor="#d1d1d1"
     showgrid="false"
     inkscape:zoom="0.081483008"
     inkscape:cx="-116.58872"
     inkscape:cy="490.89989"
     inkscape:window-width="1309"
     inkscape:window-height="430"
     inkscape:window-x="0"
     inkscape:window-y="38"
     inkscape:window-maximized="0"
     inkscape:current-layer="svg186" />
  <path
     d="M792 288H128c-52.8 0-96 43.2-96 96v256c0 52.8 43.2 96 96 96h664c52.8 0 96-43.2 96-96V384c0-52.8-43.2-96-96-96z m40 352c0 22-18 40-40 40H128c-22 0-40-18-40-40V384c0-22 18-40 40-40h664c22 0 40 18 40 40v256z m96-230.8v205.6c32 0 64-55.4 64-102.8s-32-102.8-64-102.8z"
     id="path182"
     style="fill:#b3b3b3" />
  <path
     d="M768 384H152c-13.2 0-24 10.8-24 24v208c0 13.2 10.8 24 24 24h616c13.2 0 24-10.8 24-24V408c0-13.2-10.8-24-24-24z"
     id="path184" />
</svg>
